<svg width="160" height="160" viewBox="0 0 160 160" fill="none" xmlns="http://www.w3.org/2000/svg">
<path opacity="0.3" d="M80.333 141.929C110.893 141.929 135.666 137.962 135.666 133.068C135.666 128.174 110.893 124.207 80.333 124.207C49.7734 124.207 25 128.174 25 133.068C25 137.962 49.7734 141.929 80.333 141.929Z" fill="url(#paint0_radial_6821_13162)"/>
<path d="M87.5035 32.1533C87.598 32.1061 87.6925 32.0588 87.7831 32.0115C88.1376 31.8343 88.4959 31.665 88.8464 31.5035C88.9055 31.4759 88.9646 31.4523 89.0237 31.4247C89.323 31.2908 89.6184 31.1609 89.9177 31.0348C90.0319 30.9876 90.1421 30.9403 90.2564 30.8931C90.4611 30.8104 90.6659 30.7276 90.8707 30.6489C90.9849 30.6056 91.0992 30.5583 91.2134 30.5189C91.4378 30.4323 91.6663 30.3535 91.8907 30.2747C91.9813 30.2432 92.068 30.2117 92.1586 30.1802C92.4697 30.0739 92.7769 29.9715 93.0841 29.877C93.1431 29.8573 93.2022 29.8415 93.2613 29.8258C93.5094 29.751 93.7575 29.6761 94.0056 29.6092C94.1553 29.5698 94.301 29.5304 94.4506 29.491C94.5609 29.4635 94.6712 29.432 94.7815 29.4044C94.9429 29.365 95.1005 29.3296 95.2619 29.2941C95.3643 29.2705 95.4667 29.2469 95.5691 29.2232C95.7503 29.1838 95.9275 29.1484 96.1087 29.1129C96.1874 29.0972 96.2701 29.0814 96.3489 29.0657C96.6049 29.0184 96.8609 28.9751 97.1169 28.9357C97.5068 28.8767 97.8888 28.8294 98.2708 28.79C98.3456 28.7821 98.4204 28.7743 98.4953 28.7664C98.8655 28.7309 99.2278 28.7034 99.5901 28.6876C99.661 28.6876 99.7319 28.6837 99.8028 28.6797C100.094 28.6679 100.386 28.664 100.673 28.664C100.736 28.664 100.799 28.664 100.862 28.664C101.193 28.664 101.516 28.6797 101.843 28.6994C101.918 28.7034 101.996 28.7112 102.071 28.7152C102.327 28.7349 102.579 28.7546 102.831 28.7821C102.898 28.79 102.969 28.7939 103.036 28.8058C103.339 28.8412 103.639 28.8845 103.934 28.9357C104.001 28.9475 104.064 28.9594 104.131 28.9712C104.363 29.0145 104.596 29.0618 104.828 29.1129C104.907 29.1287 104.986 29.1484 105.06 29.1641C105.344 29.2311 105.624 29.302 105.903 29.3847C105.927 29.3926 105.95 29.4004 105.974 29.4083C106.226 29.4831 106.478 29.5659 106.726 29.6486C106.801 29.6761 106.88 29.7037 106.955 29.7313C107.175 29.81 107.392 29.8927 107.608 29.9833C107.66 30.003 107.711 30.0227 107.762 30.0463C108.022 30.1566 108.278 30.2747 108.534 30.3968C108.597 30.4283 108.66 30.4598 108.723 30.4914C108.924 30.5937 109.125 30.6961 109.322 30.8064C109.424 30.8655 109.53 30.9206 109.633 30.9797L99.917 25.3322C99.854 25.2967 99.791 25.2613 99.728 25.2259C99.6886 25.2022 99.6452 25.1825 99.6059 25.1628C99.4089 25.0526 99.2081 24.9502 99.0072 24.8478C98.9442 24.8163 98.8852 24.7848 98.8221 24.7533C98.5662 24.6312 98.3102 24.513 98.0502 24.4028C98.0384 24.3988 98.0266 24.3909 98.0148 24.387C97.9754 24.3712 97.936 24.3594 97.9006 24.3437C97.684 24.257 97.4674 24.1704 97.2468 24.0916C97.172 24.0641 97.0932 24.0365 97.0184 24.0089C96.7703 23.9223 96.5222 23.8435 96.2662 23.7687C96.2465 23.7647 96.2268 23.7569 96.2071 23.749C96.2032 23.749 96.1992 23.749 96.1953 23.749C95.9196 23.6702 95.6361 23.5954 95.3525 23.5285C95.2737 23.5088 95.1989 23.493 95.1201 23.4773C94.8917 23.4261 94.6594 23.3788 94.4231 23.3355C94.3758 23.3276 94.3325 23.3158 94.2852 23.3079C94.2655 23.3079 94.2458 23.304 94.2262 23.3C93.9308 23.2488 93.6315 23.2055 93.3282 23.1701C93.2613 23.1622 93.1943 23.1543 93.1234 23.1464C92.8714 23.1189 92.6193 23.0952 92.3633 23.0795C92.3161 23.0795 92.2688 23.0677 92.2176 23.0677C92.1901 23.0677 92.1625 23.0677 92.1349 23.0677C91.812 23.048 91.4851 23.0362 91.1543 23.0322C91.0913 23.0322 91.0283 23.0322 90.9652 23.0322C90.6778 23.0322 90.3863 23.0362 90.0909 23.048C90.0437 23.048 89.9964 23.048 89.9492 23.048C89.9255 23.048 89.9019 23.0519 89.8783 23.0519C89.516 23.0677 89.1497 23.0952 88.7834 23.1307C88.7086 23.1386 88.6338 23.1464 88.559 23.1543C88.1769 23.1937 87.7949 23.241 87.405 23.3C87.405 23.3 87.405 23.3 87.4011 23.3C87.149 23.3394 86.8931 23.3827 86.6371 23.43C86.5583 23.4457 86.4795 23.4615 86.4008 23.4773C86.2196 23.5127 86.0424 23.5481 85.8612 23.5875C85.7588 23.6112 85.6564 23.6348 85.554 23.6584C85.3926 23.6939 85.235 23.7293 85.0736 23.7687C84.9633 23.7963 84.853 23.8238 84.7427 23.8553C84.6246 23.8868 84.5104 23.9144 84.3922 23.9459C84.3607 23.9538 84.3292 23.9656 84.2977 23.9735C84.0496 24.0404 83.8015 24.1153 83.5494 24.1901C83.4904 24.2058 83.4352 24.2216 83.3801 24.2413C83.0729 24.3358 82.7618 24.4382 82.4546 24.5445C82.368 24.576 82.2774 24.6075 82.1868 24.639C81.9623 24.7178 81.7378 24.8005 81.5094 24.8832C81.3952 24.9265 81.281 24.9699 81.1668 25.0132C80.962 25.092 80.7572 25.1747 80.5524 25.2574C80.4894 25.2849 80.4264 25.3046 80.3634 25.3322C80.3122 25.3519 80.2649 25.3755 80.2137 25.3991C79.9183 25.5252 79.619 25.6551 79.3197 25.789C79.2606 25.8166 79.2016 25.8402 79.1425 25.8678C78.788 26.0293 78.4336 26.1986 78.0792 26.3758C77.9846 26.4231 77.8901 26.4704 77.7995 26.5176C77.5239 26.6555 77.2482 26.8012 76.9686 26.9469C76.8662 27.002 76.7598 27.0572 76.6574 27.1123C76.2951 27.3092 75.9328 27.5101 75.5705 27.7188C75.1176 27.9827 74.6647 28.2544 74.2157 28.534C74.1409 28.5813 74.0621 28.6285 73.9873 28.6758C73.558 28.9475 73.1287 29.2272 72.7034 29.5107C72.6207 29.5659 72.538 29.621 72.4553 29.6801C72.0221 29.9754 71.5888 30.2747 71.1635 30.5859C71.1241 30.6134 71.0887 30.641 71.0493 30.6686C70.6358 30.9718 70.2223 31.279 69.8127 31.598C69.7497 31.6453 69.6906 31.6925 69.6276 31.7398C69.2101 32.0627 68.7966 32.3975 68.387 32.7362C68.3043 32.8031 68.2255 32.8701 68.1428 32.937C67.7333 33.2797 67.3237 33.6262 66.918 33.9807C66.8629 34.0319 66.8038 34.0831 66.7487 34.1303C66.3549 34.4769 65.965 34.8314 65.5751 35.1937C65.5357 35.2291 65.4963 35.2685 65.4569 35.3039C65.0552 35.6781 64.6574 36.0601 64.2636 36.45C64.2203 36.4894 64.1809 36.5288 64.1376 36.5721C64.0903 36.6193 64.047 36.6627 63.9998 36.7099C63.795 36.9147 63.5862 37.1234 63.3814 37.3322C63.2909 37.4227 63.2042 37.5133 63.1136 37.6039C62.8222 37.9032 62.5347 38.2065 62.2472 38.5097C62.2236 38.5373 62.2 38.5609 62.1763 38.5885C61.9125 38.8681 61.6525 39.1517 61.3926 39.4392C61.302 39.5415 61.2114 39.6439 61.1169 39.7463C60.9239 39.9629 60.731 40.1796 60.5419 40.3962C60.4947 40.4513 60.4474 40.5025 60.4002 40.5576C60.3686 40.597 60.3332 40.6364 60.3017 40.6758C59.8882 41.1523 59.4786 41.6367 59.0729 42.129C59.0139 42.2038 58.9509 42.2747 58.8918 42.3496C58.4861 42.8458 58.0844 43.3499 57.6906 43.8579C57.6709 43.8855 57.6473 43.9131 57.6237 43.9406C57.5843 43.9918 57.5488 44.043 57.5094 44.0903C57.1629 44.5392 56.8202 44.9882 56.4855 45.445C56.4776 45.4529 56.4737 45.4608 56.4658 45.4726C56.1271 45.9334 55.7924 46.4021 55.4576 46.8707C55.4222 46.9219 55.3828 46.9731 55.3473 47.0243C55.3198 47.0637 55.2961 47.1031 55.2686 47.1385C54.9732 47.5638 54.6778 47.9892 54.3903 48.4185C54.3391 48.4972 54.2879 48.5721 54.2367 48.6508C53.9807 49.0328 53.7326 49.4188 53.4806 49.8047C53.4412 49.8638 53.4018 49.9229 53.3664 49.978C53.3467 50.0095 53.327 50.041 53.3073 50.0765C53.0395 50.4939 52.7796 50.9153 52.5196 51.3407C52.4645 51.4273 52.4133 51.5179 52.3582 51.6045C52.1416 51.9629 51.9289 52.3213 51.7162 52.6797C51.6768 52.7466 51.6375 52.8097 51.602 52.8727C51.5784 52.912 51.5548 52.9554 51.5311 52.9948C51.2869 53.4162 51.0428 53.8375 50.8065 54.2629C50.771 54.322 50.7395 54.385 50.7041 54.448C50.4993 54.8182 50.2945 55.1923 50.0936 55.5704C50.0621 55.6334 50.0267 55.6925 49.9952 55.7555C49.9637 55.8146 49.9361 55.8736 49.9046 55.9288C49.6998 56.3147 49.499 56.7007 49.302 57.0906C49.2784 57.1378 49.2548 57.1851 49.2312 57.2324C49.0146 57.6616 48.8019 58.0948 48.5892 58.5281C48.5656 58.5753 48.542 58.6186 48.5223 58.6659C48.4868 58.7368 48.4553 58.8077 48.4238 58.8786C48.2545 59.233 48.0891 59.5835 47.9236 59.9419C47.8764 60.0404 47.8291 60.1428 47.7858 60.2412C47.585 60.6784 47.392 61.1194 47.199 61.5566C47.1872 61.5842 47.1754 61.6117 47.1636 61.6354C47.136 61.7023 47.1084 61.7653 47.0808 61.8323C46.9194 62.2064 46.7618 62.5845 46.6043 62.9586C46.5571 63.0728 46.5098 63.191 46.4625 63.3052C46.2774 63.7581 46.0963 64.211 45.923 64.6639C45.9191 64.6757 45.9112 64.6915 45.9072 64.7033C45.8915 64.7466 45.8757 64.7899 45.86 64.8333C45.6946 65.2625 45.537 65.6879 45.3834 66.1171C45.3441 66.2314 45.3007 66.3456 45.2614 66.4598C45.092 66.9324 44.9305 67.405 44.7691 67.8776C44.7612 67.8973 44.7573 67.913 44.7494 67.9327C44.7336 67.98 44.7218 68.0233 44.7061 68.0705C44.5485 68.5471 44.3949 69.0236 44.2492 69.5001C44.2216 69.5868 44.1941 69.6774 44.1665 69.764C44.0129 70.2681 43.8672 70.7761 43.7254 71.2802C43.7136 71.3275 43.6979 71.3708 43.686 71.4181C43.6703 71.4693 43.6585 71.5205 43.6467 71.5756C43.4891 72.1506 43.3355 72.7295 43.1938 73.3045C43.1741 73.3794 43.1583 73.4542 43.1386 73.529C42.9929 74.1276 42.8551 74.7263 42.729 75.3209C42.729 75.3288 42.7251 75.3367 42.7251 75.3446C42.7054 75.4351 42.6897 75.5218 42.67 75.6084C42.6109 75.888 42.5557 76.1637 42.5006 76.4394C42.473 76.5812 42.4494 76.719 42.4218 76.8608C42.3785 77.0971 42.3352 77.3334 42.2919 77.5697C42.2643 77.7233 42.2407 77.8769 42.2131 78.0265C42.1777 78.251 42.1383 78.4755 42.1028 78.7C42.0792 78.8575 42.0556 79.0151 42.032 79.1726C42.0005 79.3931 41.9689 79.6137 41.9374 79.8342C41.9256 79.9169 41.9138 80.0036 41.902 80.0902C41.8941 80.1414 41.8902 80.1926 41.8862 80.2438C41.8232 80.74 41.7681 81.2323 41.7169 81.7246C41.709 81.7955 41.7051 81.8664 41.6972 81.9333C41.6539 82.3902 41.6184 82.8431 41.5869 83.296C41.583 83.3826 41.5751 83.4653 41.5672 83.552C41.5357 84.0364 41.5121 84.5208 41.4963 85.0013C41.4963 85.1037 41.4885 85.206 41.4885 85.3084C41.4727 85.8047 41.4648 86.297 41.4648 86.7853C41.4964 97.5762 45.3047 105.165 51.4484 108.737L61.1642 114.385C55.0204 110.813 51.2121 103.224 51.1806 92.4328C51.1806 91.9445 51.1885 91.4482 51.2042 90.956C51.2042 90.8536 51.2082 90.7512 51.2121 90.6488C51.2279 90.1683 51.2515 89.6839 51.283 89.1995C51.2869 89.1128 51.2948 89.0301 51.3027 88.9435C51.3342 88.4906 51.3696 88.0377 51.413 87.5808C51.4208 87.5099 51.4248 87.4391 51.4327 87.3721C51.4799 86.8798 51.539 86.3875 51.602 85.8913C51.6178 85.7574 51.6375 85.6196 51.6571 85.4817C51.6847 85.2612 51.7162 85.0406 51.7517 84.824C51.7753 84.6665 51.7989 84.509 51.8226 84.3514C51.858 84.127 51.8934 83.9025 51.9328 83.678C51.9565 83.5244 51.984 83.3708 52.0116 83.2211C52.051 82.9849 52.0982 82.7486 52.1416 82.5123C52.1691 82.3705 52.1928 82.2326 52.2203 82.0909C52.2755 81.8152 52.3306 81.5356 52.3897 81.2599C52.4094 81.1614 52.429 81.0669 52.4487 80.9684C52.5748 80.3698 52.7126 79.7751 52.8583 79.1765C52.878 79.1017 52.8938 79.0269 52.9135 78.952C53.0552 78.377 53.2088 77.7981 53.3664 77.2231C53.3939 77.1247 53.4215 77.0262 53.4491 76.9278C53.5908 76.4237 53.7366 75.9156 53.8902 75.4115C53.9177 75.3249 53.9453 75.2343 53.9729 75.1476C54.1186 74.6711 54.2722 74.1906 54.4297 73.7141C54.4494 73.6511 54.4691 73.5881 54.4927 73.5251C54.6502 73.0525 54.8157 72.5799 54.985 72.1073C55.0244 71.9931 55.0677 71.8789 55.1071 71.7647C55.2607 71.3354 55.4222 70.91 55.5836 70.4808C55.6073 70.4217 55.6269 70.3626 55.6506 70.3035C55.8239 69.8506 56.005 69.3977 56.1901 68.9448C56.2374 68.8267 56.2846 68.7125 56.3319 68.5943C56.4855 68.2202 56.647 67.8421 56.8045 67.468C56.8439 67.3774 56.8833 67.2829 56.9226 67.1923C57.1156 66.7512 57.3086 66.3141 57.5094 65.8769C57.5567 65.7745 57.604 65.6721 57.6512 65.5737C57.8127 65.2192 57.9781 64.8687 58.1475 64.5182C58.2026 64.4 58.2617 64.2819 58.3168 64.1638C58.5255 63.7305 58.7382 63.2973 58.9587 62.8681C58.9824 62.8208 59.006 62.7735 59.0296 62.7263C59.2265 62.3403 59.4274 61.9544 59.6322 61.5684C59.6952 61.4463 59.7622 61.3282 59.8252 61.2061C60.026 60.832 60.2269 60.4618 60.4317 60.0916C60.4671 60.0285 60.5026 59.9655 60.5341 59.9025C60.7704 59.4772 61.0106 59.0558 61.2587 58.6344C61.3217 58.5281 61.3847 58.4217 61.4477 58.3115C61.6604 57.9531 61.8731 57.5947 62.0897 57.2402C62.1448 57.1536 62.196 57.063 62.2512 56.9724C62.5111 56.551 62.7749 56.1296 63.0388 55.7122C63.0979 55.6216 63.157 55.531 63.2121 55.4404C63.4602 55.0545 63.7123 54.6685 63.9643 54.2905C64.0155 54.2117 64.0667 54.1329 64.1218 54.0542C64.4093 53.6249 64.7047 53.1995 65.0001 52.7742C65.0631 52.6836 65.1261 52.593 65.1891 52.5025C65.5199 52.0338 65.8547 51.5652 66.1973 51.1044C66.2052 51.0965 66.2091 51.0886 66.217 51.0768C66.5557 50.62 66.8983 50.1671 67.241 49.722C67.3 49.6433 67.3631 49.5645 67.4221 49.4857C67.816 48.9777 68.2177 48.4736 68.6233 47.9774C68.6824 47.9025 68.7454 47.8277 68.8045 47.7568C69.2101 47.2645 69.6197 46.7801 70.0332 46.3036C70.1159 46.2091 70.1947 46.1185 70.2774 46.024C70.4664 45.8074 70.6594 45.5908 70.8524 45.3781C70.943 45.2757 71.0335 45.1733 71.1281 45.0709C71.3841 44.7874 71.644 44.5038 71.9078 44.2242C71.9354 44.1966 71.959 44.169 71.9866 44.1415C72.2741 43.8343 72.5616 43.535 72.853 43.2357C72.9436 43.1451 73.0303 43.0545 73.1208 42.9639C73.3256 42.7552 73.5304 42.5465 73.7392 42.3417C73.8258 42.255 73.9164 42.1684 74.003 42.0817C74.3968 41.6958 74.7946 41.3098 75.1963 40.9357C75.2357 40.9003 75.2751 40.8609 75.3145 40.8254C75.7044 40.4631 76.0943 40.1126 76.4881 39.7621C76.5472 39.7109 76.6023 39.6597 76.6574 39.6085C77.0631 39.2541 77.4687 38.9075 77.8822 38.5649C77.9649 38.4979 78.0437 38.4309 78.1264 38.364C78.536 38.0253 78.9495 37.6945 79.367 37.3676C79.43 37.3203 79.4891 37.2731 79.5521 37.2258C79.9617 36.9108 80.3712 36.5996 80.7887 36.2964C80.8281 36.2688 80.8635 36.2413 80.9029 36.2137C81.3322 35.9026 81.7615 35.6033 82.1947 35.3079C82.2774 35.2527 82.3601 35.1937 82.4428 35.1385C82.8681 34.851 83.2974 34.5714 83.7267 34.3036C83.8015 34.2564 83.8803 34.2091 83.9551 34.1618C84.404 33.8822 84.857 33.6065 85.3099 33.3466C85.6761 33.1379 86.0384 32.937 86.3968 32.7401C86.4992 32.685 86.6056 32.6298 86.708 32.5747C86.9836 32.429 87.2633 32.2833 87.5389 32.1454L87.5035 32.1533Z" fill="url(#paint1_linear_6821_13162)"/>
<path d="M109.546 86.7196C122.933 63.6821 122.968 38.7212 109.625 30.9679C96.2821 23.2146 74.6135 35.6049 61.2269 58.6424C47.8403 81.6799 47.8049 106.641 61.1478 114.394C74.4908 122.147 96.1594 109.757 109.546 86.7196Z" fill="url(#paint2_linear_6821_13162)"/>
<g style="mix-blend-mode:overlay" opacity="0.2">
<path d="M109.546 86.7196C122.933 63.6821 122.968 38.7212 109.625 30.9679C96.2821 23.2146 74.6135 35.6049 61.2269 58.6424C47.8403 81.6799 47.8049 106.641 61.1478 114.394C74.4908 122.147 96.1594 109.757 109.546 86.7196Z" fill="url(#paint3_linear_6821_13162)"/>
</g>
<path d="M88.9409 84.0325C86.2747 85.5724 84.1914 89.1208 84.1992 92.1257C84.2071 95.1306 86.3062 96.3239 88.9724 94.784C91.6899 93.2166 93.7181 89.6367 93.7102 86.6318C93.7023 83.6269 91.6544 82.4611 88.9409 84.0325Z" fill="url(#paint4_linear_6821_13162)"/>
<path d="M88.9409 84.0325C86.2747 85.5724 84.1914 89.1208 84.1992 92.1257C84.2071 95.1306 86.3062 96.3239 88.9724 94.784C91.6899 93.2166 93.7181 89.6367 93.7102 86.6318C93.7023 83.6269 91.6544 82.4611 88.9409 84.0325Z" fill="white" fill-opacity="0.4"/>
<path d="M87.33 80.0705L90.4728 78.255C91.6425 77.5815 92.5916 76.1126 92.5995 74.9586L92.757 54.3338C92.7649 53.1681 91.8039 52.7742 90.6185 53.4595L87.0859 55.4995C85.9004 56.1848 84.9434 57.6814 84.9592 58.8313L85.1915 79.2317C85.2033 80.3699 86.1604 80.744 87.33 80.0666V80.0705Z" fill="url(#paint5_linear_6821_13162)"/>
<path d="M87.33 80.0705L90.4728 78.255C91.6425 77.5815 92.5916 76.1126 92.5995 74.9586L92.757 54.3338C92.7649 53.1681 91.8039 52.7742 90.6185 53.4595L87.0859 55.4995C85.9004 56.1848 84.9434 57.6814 84.9592 58.8313L85.1915 79.2317C85.2033 80.3699 86.1604 80.744 87.33 80.0666V80.0705Z" fill="white" fill-opacity="0.4"/>
<path d="M89.9058 83.5794C89.9058 83.5794 89.9334 83.5676 89.9491 83.5636C90.0791 83.5164 90.209 83.4809 90.3351 83.4494C90.402 83.4337 90.469 83.4179 90.5359 83.4061C90.6186 83.3904 90.7053 83.3746 90.784 83.3628C90.8313 83.3549 90.8825 83.351 90.9297 83.347C91.0243 83.3392 91.1188 83.3352 91.2094 83.3352C91.2409 83.3352 91.2763 83.3352 91.3078 83.3352C91.426 83.3392 91.5441 83.3549 91.6583 83.3746C91.678 83.3746 91.6977 83.3825 91.7213 83.3904C91.8159 83.41 91.9064 83.4376 91.997 83.4652C92.0246 83.4731 92.0482 83.4809 92.0758 83.4927C92.1821 83.5321 92.2845 83.5794 92.383 83.6385L89.4962 81.9608C89.4962 81.9608 89.4805 81.9529 89.4726 81.945C89.3978 81.9056 89.3229 81.8662 89.2481 81.8347C89.2284 81.8269 89.2127 81.8229 89.193 81.815C89.1654 81.8032 89.1418 81.7953 89.1142 81.7875C89.0788 81.7757 89.0433 81.7599 89.0079 81.7481C88.9527 81.7323 88.8937 81.7205 88.8385 81.7087C88.8188 81.7048 88.7991 81.6969 88.7755 81.6929C88.7676 81.6929 88.7597 81.689 88.7479 81.6851C88.6574 81.6693 88.5628 81.6575 88.4683 81.6536C88.4526 81.6536 88.4407 81.6536 88.425 81.6536C88.3935 81.6536 88.358 81.6536 88.3265 81.6536C88.2714 81.6536 88.2163 81.6536 88.1611 81.6536C88.1257 81.6536 88.0863 81.6614 88.0509 81.6654C88.0036 81.6654 87.9524 81.6733 87.9051 81.6811C87.8736 81.6851 87.8421 81.6851 87.8067 81.6929C87.7594 81.7008 87.7082 81.7166 87.657 81.7245C87.5901 81.7363 87.5231 81.752 87.4562 81.7678C87.4286 81.7756 87.405 81.7757 87.3774 81.7835C87.275 81.8111 87.1726 81.8426 87.0702 81.8781C87.0545 81.882 87.0427 81.8899 87.0269 81.8938C86.9481 81.9214 86.8733 81.9489 86.7945 81.9844C86.7433 82.0041 86.6961 82.0316 86.6449 82.0513C86.6016 82.071 86.5582 82.0907 86.5189 82.1104C86.3692 82.1813 86.2156 82.2601 86.062 82.3506C85.9045 82.4412 85.7509 82.5397 85.5973 82.646C85.5461 82.6815 85.4988 82.7169 85.4476 82.7523C85.3453 82.8272 85.2429 82.8981 85.1444 82.9768C85.0853 83.0241 85.0302 83.0714 84.975 83.1186C84.8845 83.1934 84.7939 83.2683 84.7072 83.347C84.6482 83.3982 84.593 83.4534 84.534 83.5085C84.4906 83.5518 84.4434 83.5912 84.4001 83.6345C84.3725 83.6621 84.3449 83.6936 84.3174 83.7212C84.1992 83.8393 84.085 83.9614 83.9708 84.0874C83.9353 84.1268 83.8999 84.1583 83.8684 84.1977C83.8526 84.2174 83.8369 84.2331 83.8211 84.2528C83.7621 84.3198 83.7069 84.3907 83.6478 84.4616C83.5966 84.5285 83.5415 84.5876 83.4864 84.6545C83.4667 84.6821 83.447 84.7057 83.4273 84.7333C83.384 84.7884 83.3446 84.8436 83.3052 84.8987C83.2619 84.9578 83.2186 85.0129 83.1753 85.072C83.1398 85.1193 83.1083 85.1705 83.0768 85.2217C83.0413 85.2729 83.0098 85.3201 82.9744 85.3713C82.9508 85.4068 82.9271 85.4383 82.9074 85.4737C82.8366 85.58 82.7735 85.6903 82.7066 85.8006C82.6987 85.8163 82.6869 85.8321 82.6751 85.8518C82.6751 85.8557 82.6711 85.8597 82.6672 85.8636C82.5924 85.9896 82.5215 86.1196 82.4545 86.2496C82.4388 86.2811 82.423 86.3126 82.4073 86.3441C82.3837 86.3874 82.364 86.4307 82.3403 86.474C82.3128 86.5292 82.2852 86.5843 82.2576 86.6394C82.2182 86.7261 82.1789 86.8127 82.1395 86.8994C82.1237 86.9309 82.108 86.9624 82.0962 86.9939C82.0883 87.0057 82.0843 87.0215 82.0765 87.0333C82.0174 87.1672 81.9623 87.305 81.9111 87.4429C81.9032 87.4625 81.8953 87.4822 81.8874 87.5019C81.8717 87.5453 81.8559 87.5925 81.8402 87.6358C81.8126 87.7146 81.7811 87.7934 81.7575 87.8721C81.7417 87.9233 81.726 87.9745 81.7102 88.0257C81.6905 88.0887 81.6708 88.1478 81.6551 88.2108C81.6433 88.2541 81.6275 88.2935 81.6157 88.3368C81.596 88.4077 81.5802 88.4786 81.5645 88.5495C81.5448 88.6243 81.5251 88.7031 81.5094 88.7779C81.5015 88.8055 81.4936 88.8331 81.4897 88.8646C81.4778 88.9237 81.47 88.9827 81.4582 89.0418C81.4345 89.1639 81.4109 89.286 81.3951 89.4081C81.3912 89.4435 81.3833 89.475 81.3794 89.5105C81.3676 89.5892 81.3636 89.668 81.3558 89.7468C81.3518 89.8019 81.3439 89.857 81.34 89.9122C81.3282 90.0894 81.3203 90.2627 81.3203 90.436C81.3243 91.9207 81.8402 92.9643 82.679 93.4527L85.5658 95.1304C84.723 94.6421 84.211 93.5984 84.2071 92.1137C84.2071 91.9404 84.215 91.7671 84.2268 91.5899C84.2307 91.5347 84.2386 91.4796 84.2425 91.4205C84.2543 91.3063 84.2662 91.196 84.2819 91.0818C84.2977 90.9598 84.3213 90.8377 84.3449 90.7116C84.3607 90.625 84.3764 90.5384 84.3961 90.4517C84.4119 90.3729 84.4316 90.2981 84.4513 90.2194C84.4788 90.1051 84.5103 89.9949 84.5418 89.8807C84.5615 89.8176 84.5773 89.7546 84.597 89.6956C84.6364 89.5656 84.6797 89.4356 84.7269 89.3096C84.7427 89.2623 84.7584 89.219 84.7742 89.1718C84.8372 89.0024 84.9081 88.8331 84.9829 88.6637C84.9987 88.6322 85.0105 88.6007 85.0262 88.5692C85.0893 88.4274 85.1562 88.2857 85.2271 88.1478C85.2468 88.1045 85.2704 88.0612 85.2941 88.0178C85.3807 87.8524 85.4673 87.687 85.5619 87.5256C85.5697 87.5098 85.5815 87.4941 85.5934 87.4744C85.68 87.3286 85.7706 87.1869 85.8612 87.0451C85.8927 86.9939 85.9281 86.9427 85.9636 86.8954C86.0384 86.7852 86.1132 86.6788 86.192 86.5725C86.2314 86.5174 86.2747 86.4622 86.3141 86.4071C86.385 86.3126 86.4598 86.2259 86.5307 86.1353C86.5858 86.0645 86.6449 85.9936 86.704 85.9266C86.7512 85.8715 86.8024 85.8163 86.8536 85.7612C86.9678 85.6352 87.082 85.5131 87.2002 85.3949C87.2711 85.3241 87.342 85.2532 87.4168 85.1823C87.4719 85.1271 87.531 85.0759 87.5901 85.0208C87.6767 84.942 87.7673 84.8672 87.8579 84.7924C87.913 84.7451 87.9721 84.6979 88.0272 84.6506C88.1257 84.5718 88.2281 84.497 88.3305 84.4261C88.3817 84.3907 88.4289 84.3513 88.4801 84.3198C88.6337 84.2135 88.7873 84.115 88.9448 84.0244C89.0984 83.9338 89.252 83.859 89.4017 83.7842C89.445 83.7645 89.4883 83.7448 89.5277 83.7251C89.6577 83.666 89.7837 83.6148 89.9097 83.5676L89.9058 83.5794Z" fill="url(#paint6_linear_6821_13162)"/>
<path d="M82.8088 78.5936L85.6956 80.2713C85.3844 80.0902 85.1954 79.7397 85.1915 79.2356L84.9591 58.8352C84.9591 58.7013 84.9709 58.5595 84.9945 58.4177C84.9945 58.398 85.0024 58.3823 85.0024 58.3626C85.03 58.2208 85.0654 58.0751 85.1166 57.9294V57.9215C85.1678 57.7679 85.2308 57.6143 85.3057 57.4607C85.3057 57.4607 85.3057 57.4529 85.3096 57.4489C85.3844 57.2953 85.4711 57.1457 85.5656 56.996C85.6562 56.8542 85.7586 56.7125 85.8649 56.5786C85.8767 56.5628 85.8925 56.547 85.9043 56.5274C86.0067 56.4013 86.113 56.2832 86.2233 56.169C86.2312 56.1611 86.2351 56.1532 86.243 56.1453C86.3257 56.0626 86.4163 55.9878 86.5068 55.913C86.5541 55.8736 86.5974 55.8303 86.6447 55.7948C86.7825 55.6885 86.9282 55.59 87.074 55.5034L90.6066 53.4634C90.7129 53.4004 90.8193 53.3531 90.9217 53.3058C90.9492 53.294 90.9807 53.2822 91.0083 53.2704C91.0674 53.2468 91.1265 53.2271 91.1855 53.2113C91.217 53.2034 91.2446 53.1916 91.2761 53.1837C91.3116 53.1759 91.3431 53.168 91.3785 53.1641C91.4179 53.1562 91.4573 53.1483 91.4927 53.1444C91.5164 53.1444 91.54 53.1404 91.5636 53.1365C91.6069 53.1365 91.6503 53.1325 91.6896 53.1325C91.7093 53.1325 91.7251 53.1325 91.7448 53.1325C91.7999 53.1325 91.859 53.1404 91.9102 53.1483C91.9141 53.1483 91.9181 53.1483 91.922 53.1483C91.9732 53.1562 92.0205 53.1719 92.0638 53.1877C92.0756 53.1877 92.0874 53.1956 92.0992 53.1995C92.1465 53.2192 92.1937 53.2389 92.241 53.2664L89.3542 51.5887C89.3542 51.5887 89.3464 51.5848 89.3424 51.5809C89.3109 51.5612 89.2794 51.5454 89.244 51.5336C89.2321 51.5297 89.2243 51.5257 89.2125 51.5218C89.2006 51.5178 89.1888 51.5139 89.177 51.51C89.1613 51.506 89.1494 51.4982 89.1337 51.4942C89.1022 51.4863 89.0667 51.4785 89.0313 51.4706C89.0274 51.4706 89.0234 51.4706 89.0195 51.4706C88.9762 51.4627 88.9328 51.4588 88.8895 51.4548C88.8777 51.4548 88.8698 51.4548 88.858 51.4548C88.8423 51.4548 88.8226 51.4548 88.8029 51.4548C88.7832 51.4548 88.7596 51.4548 88.7399 51.4548C88.7202 51.4548 88.6965 51.4588 88.6768 51.4627C88.6532 51.4627 88.6296 51.4627 88.606 51.4706C88.5941 51.4706 88.5823 51.4706 88.5666 51.4706C88.5429 51.4706 88.5154 51.4824 88.4878 51.4863C88.4563 51.4942 88.4209 51.4982 88.3854 51.506C88.3736 51.506 88.3657 51.506 88.3539 51.5139C88.3342 51.5178 88.3145 51.5297 88.2948 51.5336C88.2358 51.5494 88.1767 51.569 88.1176 51.5927C88.1019 51.6006 88.0861 51.6045 88.0703 51.6084C88.0585 51.6124 88.0428 51.6242 88.031 51.6281C87.9286 51.6714 87.8222 51.7226 87.7159 51.7857L84.1833 53.8257C84.0375 53.9123 83.8918 54.0068 83.754 54.1171C83.7067 54.1526 83.6634 54.1959 83.6161 54.2353C83.5295 54.3101 83.4389 54.381 83.3562 54.4637C83.3562 54.4637 83.3523 54.4676 83.3483 54.4716C83.3405 54.4794 83.3365 54.4873 83.3286 54.4952C83.2538 54.57 83.179 54.6488 83.1081 54.7315C83.0727 54.7709 83.0412 54.8103 83.0096 54.8536C82.9939 54.8693 82.9821 54.8851 82.9663 54.9048C82.9545 54.9205 82.9388 54.9363 82.9269 54.952C82.8797 55.015 82.8324 55.0781 82.7852 55.145C82.7458 55.2041 82.7064 55.2632 82.667 55.3222C82.6316 55.3774 82.6001 55.4286 82.5686 55.4837C82.537 55.5349 82.5095 55.59 82.478 55.6452C82.4543 55.6885 82.4307 55.7318 82.411 55.7791C82.411 55.7791 82.411 55.787 82.4071 55.7909C82.4071 55.7948 82.4031 55.7988 82.3992 55.8027C82.3756 55.8539 82.352 55.9051 82.3283 55.9563C82.3047 56.0075 82.285 56.0587 82.2653 56.1099C82.2496 56.1532 82.2338 56.2005 82.218 56.2438C82.218 56.2438 82.218 56.2517 82.218 56.2556C82.218 56.2596 82.218 56.2635 82.2141 56.2674C82.1944 56.3226 82.1787 56.3777 82.1629 56.4328C82.1472 56.4958 82.1314 56.5549 82.1196 56.6179C82.1157 56.6416 82.1117 56.6652 82.1078 56.6888C82.1078 56.7085 82.0999 56.7243 82.0999 56.744C82.096 56.7755 82.0881 56.8109 82.0841 56.8424C82.0684 56.9488 82.0645 57.059 82.0645 57.1614L82.2968 77.5618C82.3047 78.0619 82.4898 78.4164 82.8009 78.5976L82.8088 78.5936Z" fill="url(#paint7_linear_6821_13162)"/>
<g style="mix-blend-mode:soft-light">
<path d="M88.9401 84.0325C86.4629 86.0292 83.4186 91.4798 85.4114 94.4374C86.2975 95.4772 87.7822 95.2093 88.9716 94.784C88.4281 95.2409 87.7744 95.6032 87.0143 95.7331C85.6437 96.0009 84.3559 95.0991 83.9148 93.8073C82.7452 90.0384 85.4114 85.4503 88.9401 84.0325Z" fill="white"/>
<path d="M87.0851 55.4995C85.9903 56.3305 85.1239 57.705 85.2735 59.0873C85.3444 60.194 85.4114 61.3794 85.4586 62.4821C85.6989 67.8342 85.754 73.6353 85.6122 78.9875C85.4586 80.6494 86.9079 80.0233 87.8334 79.5113C88.6762 79.0859 89.6135 78.6449 90.4721 78.255C89.712 78.8063 88.8495 79.3853 88.0658 79.909C87.3608 80.4013 86.4432 81.0433 85.5256 80.5904C84.5843 80.0941 84.797 78.9127 84.7143 78.0305C84.5961 75.7896 84.541 72.5405 84.4977 70.2642C84.4819 67.2081 84.4819 63.5809 84.5922 60.5523C84.604 60.2767 84.6355 59.3709 84.6473 59.0952C84.6513 57.5356 85.7501 56.1572 87.0851 55.4995Z" fill="white"/>
</g>
<g style="mix-blend-mode:soft-light" opacity="0.5">
<path d="M88.9409 84.0325C86.2747 85.5724 84.1914 89.1208 84.1992 92.1257C84.2071 95.1306 86.3062 96.3239 88.9724 94.784C91.6899 93.2166 93.7181 89.6367 93.7102 86.6318C93.7023 83.6269 91.6544 82.4611 88.9409 84.0325Z" fill="url(#paint8_linear_6821_13162)"/>
<path d="M87.33 80.0705L90.4728 78.255C91.6425 77.5815 92.5916 76.1126 92.5995 74.9586L92.757 54.3338C92.7649 53.1681 91.8039 52.7742 90.6185 53.4595L87.0859 55.4995C85.9004 56.1848 84.9434 57.6814 84.9592 58.8313L85.1915 79.2317C85.2033 80.3699 86.1604 80.744 87.33 80.0666V80.0705Z" fill="url(#paint9_linear_6821_13162)"/>
</g>
<g style="mix-blend-mode:overlay" opacity="0.5">
<path d="M85.697 112.38C77.9701 117.369 67.1083 120.189 59.1136 114.179C51.2291 108.213 49.6932 97.3236 50.4651 88.0725C52.3555 69.4286 62.1539 51.6473 76.1624 39.348C82.6606 33.8462 90.5608 29.199 99.2487 28.6949C103.14 28.5177 107.161 29.455 110.355 31.6644C107.015 29.7385 103.1 29.1084 99.3038 29.4865C94.0029 30.0497 89.0328 32.3024 84.5864 35.1694C67.5336 46.5196 54.9311 67.9794 52.6823 88.2773C50.3312 111.127 64.2018 123.596 85.6892 112.384L85.697 112.38Z" fill="white"/>
</g>
<defs>
<radialGradient id="paint0_radial_6821_13162" cx="0" cy="0" r="1" gradientUnits="userSpaceOnUse" gradientTransform="translate(80.333 133.163) scale(55.4472 8.87156)">
<stop stop-color="#1C002A"/>
<stop offset="0.44" stop-color="#715F79" stop-opacity="0.63"/>
<stop offset="1" stop-color="white" stop-opacity="0"/>
</radialGradient>
<linearGradient id="paint1_linear_6821_13162" x1="49.4596" y1="91.0268" x2="93.3676" y2="38.3364" gradientUnits="userSpaceOnUse">
<stop stop-color="#FBAC92"/>
<stop offset="0.08" stop-color="#FBB69F"/>
<stop offset="0.25" stop-color="#FBC7B6"/>
<stop offset="0.41" stop-color="#FBD2C4"/>
<stop offset="0.55" stop-color="#FCD6C9"/>
<stop offset="0.66" stop-color="#F5AF98"/>
<stop offset="0.75" stop-color="#F19577"/>
<stop offset="0.8" stop-color="#F08C6B"/>
<stop offset="0.82" stop-color="#F2997B"/>
<stop offset="0.87" stop-color="#F6B39D"/>
<stop offset="0.92" stop-color="#F9C6B5"/>
<stop offset="0.96" stop-color="#FBD2C3"/>
<stop offset="1" stop-color="#FCD6C9"/>
</linearGradient>
<linearGradient id="paint2_linear_6821_13162" x1="111.874" y1="31.8749" x2="64.3742" y2="111.875" gradientUnits="userSpaceOnUse">
<stop stop-color="#FA5F2C"/>
<stop offset="0.26" stop-color="#FA612E"/>
<stop offset="0.43" stop-color="#FA6737"/>
<stop offset="0.58" stop-color="#FA7346"/>
<stop offset="0.71" stop-color="#FB835B"/>
<stop offset="0.83" stop-color="#FC9877"/>
<stop offset="0.94" stop-color="#FDB198"/>
<stop offset="1" stop-color="#FEC1AD"/>
</linearGradient>
<linearGradient id="paint3_linear_6821_13162" x1="69.1046" y1="94.1081" x2="106.365" y2="45.0606" gradientUnits="userSpaceOnUse">
<stop stop-color="white"/>
<stop offset="1" stop-color="white" stop-opacity="0"/>
</linearGradient>
<linearGradient id="paint4_linear_6821_13162" x1="91.489" y1="37.6197" x2="88.4368" y2="99.9235" gradientUnits="userSpaceOnUse">
<stop stop-color="#FEC2AF"/>
<stop offset="0.49" stop-color="#FEB9A3"/>
<stop offset="1" stop-color="#FEB69F"/>
</linearGradient>
<linearGradient id="paint5_linear_6821_13162" x1="90.2168" y1="37.5606" x2="87.1646" y2="99.8605" gradientUnits="userSpaceOnUse">
<stop stop-color="#FEC2AF"/>
<stop offset="0.49" stop-color="#FEB9A3"/>
<stop offset="1" stop-color="#FEB69F"/>
</linearGradient>
<linearGradient id="paint6_linear_6821_13162" x1="86.6291" y1="93.9804" x2="87.8067" y2="56.0074" gradientUnits="userSpaceOnUse">
<stop stop-color="#8C391E"/>
<stop offset="0.37" stop-color="#BC3204"/>
</linearGradient>
<linearGradient id="paint7_linear_6821_13162" x1="85.9594" y1="93.9608" x2="87.137" y2="55.9878" gradientUnits="userSpaceOnUse">
<stop stop-color="#8C391E"/>
<stop offset="0.37" stop-color="#BC3204"/>
</linearGradient>
<linearGradient id="paint8_linear_6821_13162" x1="94.5136" y1="50.0411" x2="90.276" y2="80.0194" gradientUnits="userSpaceOnUse">
<stop stop-color="white"/>
<stop offset="1" stop-color="white" stop-opacity="0"/>
</linearGradient>
<linearGradient id="paint9_linear_6821_13162" x1="91.225" y1="49.5763" x2="86.9874" y2="79.5546" gradientUnits="userSpaceOnUse">
<stop stop-color="white"/>
<stop offset="1" stop-color="white" stop-opacity="0"/>
</linearGradient>
</defs>
</svg>
