<svg width="156" height="156" viewBox="0 0 156 156" fill="none" xmlns="http://www.w3.org/2000/svg">
<path d="M78.0001 127.92C105.57 127.92 127.92 105.57 127.92 78.0001C127.92 50.43 105.57 28.0801 78.0001 28.0801C50.43 28.0801 28.0801 50.43 28.0801 78.0001C28.0801 105.57 50.43 127.92 78.0001 127.92Z" fill="url(#paint0_linear_6776_152302)"/>
<path d="M78.0005 115.441C98.6781 115.441 115.441 98.6781 115.441 78.0005C115.441 57.323 98.6781 40.5605 78.0005 40.5605C57.323 40.5605 40.5605 57.323 40.5605 78.0005C40.5605 98.6781 57.323 115.441 78.0005 115.441Z" fill="url(#paint1_linear_6776_152302)"/>
<g filter="url(#filter0_d_6776_152302)">
<path fill-rule="evenodd" clip-rule="evenodd" d="M92.9134 66.4014C93.8291 65.4866 93.8291 64.0005 92.9149 63.0857C91.9999 62.1717 90.5147 62.1717 89.5998 63.0873L63.087 89.599C62.172 90.5146 62.1712 91.9999 63.0862 92.9147C64.0004 93.8295 65.4864 93.8287 66.4014 92.9139L92.9134 66.4014Z" fill="white"/>
<path fill-rule="evenodd" clip-rule="evenodd" d="M92.9134 89.599C93.8291 90.5146 93.8291 91.9999 92.9149 92.9147C91.9999 93.8295 90.5147 93.8287 89.5998 92.9139L63.087 66.4014C62.172 65.4866 62.1712 64.0005 63.0862 63.0857C64.0004 62.1717 65.4864 62.1717 66.4014 63.0873L92.9134 89.599Z" fill="white"/>
</g>
<defs>
<filter id="filter0_d_6776_152302" x="62.4004" y="62.4004" width="31.1992" height="33.2002" filterUnits="userSpaceOnUse" color-interpolation-filters="sRGB">
<feFlood flood-opacity="0" result="BackgroundImageFix"/>
<feColorMatrix in="SourceAlpha" type="matrix" values="0 0 0 0 0 0 0 0 0 0 0 0 0 0 0 0 0 0 127 0" result="hardAlpha"/>
<feOffset dy="2"/>
<feComposite in2="hardAlpha" operator="out"/>
<feColorMatrix type="matrix" values="0 0 0 0 0 0 0 0 0 0 0 0 0 0 0 0 0 0 0.1 0"/>
<feBlend mode="normal" in2="BackgroundImageFix" result="effect1_dropShadow_6776_152302"/>
<feBlend mode="normal" in="SourceGraphic" in2="effect1_dropShadow_6776_152302" result="shape"/>
</filter>
<linearGradient id="paint0_linear_6776_152302" x1="78.6106" y1="24.865" x2="78.6106" y2="88.6968" gradientUnits="userSpaceOnUse">
<stop stop-color="#DB2C58" stop-opacity="0.1"/>
<stop offset="1" stop-color="#DB2C58" stop-opacity="0"/>
</linearGradient>
<linearGradient id="paint1_linear_6776_152302" x1="78.0005" y1="65.6624" x2="78.0005" y2="137.564" gradientUnits="userSpaceOnUse">
<stop stop-color="#FA3434"/>
<stop offset="1" stop-color="white"/>
</linearGradient>
</defs>
</svg>
